<svg xmlns="http://www.w3.org/2000/svg" xmlns:xlink="http://www.w3.org/1999/xlink" width="500" zoomAndPan="magnify" viewBox="0 0 375 374.999991" height="500" preserveAspectRatio="xMidYMid meet" version="1.0"><defs><g/><clipPath id="2362c50eb7"><path d="M 151.167969 154.121094 L 370.402344 154.121094 L 370.402344 220.878906 L 151.167969 220.878906 Z M 151.167969 154.121094 " clip-rule="nonzero"/></clipPath></defs><g clip-path="url(#2362c50eb7)"><path fill="#5271ff" d="M 151.167969 154.121094 L 370.125 154.121094 L 370.125 220.703125 L 151.167969 220.703125 Z M 151.167969 154.121094 " fill-opacity="1" fill-rule="nonzero"/></g><g fill="#ffffff" fill-opacity="1"><g transform="translate(4.599539, 200.834847)"><g><path d="M 12.71875 0.328125 C 10.550781 0.328125 8.457031 -0.00390625 6.4375 -0.671875 C 4.425781 -1.347656 2.84375 -2.222656 1.6875 -3.296875 L 3.203125 -6.5 C 4.304688 -5.507812 5.710938 -4.707031 7.421875 -4.09375 C 9.140625 -3.476562 10.90625 -3.171875 12.71875 -3.171875 C 15.101562 -3.171875 16.882812 -3.570312 18.0625 -4.375 C 19.25 -5.1875 19.84375 -6.265625 19.84375 -7.609375 C 19.84375 -8.597656 19.519531 -9.398438 18.875 -10.015625 C 18.226562 -10.640625 17.429688 -11.113281 16.484375 -11.4375 C 15.535156 -11.769531 14.195312 -12.140625 12.46875 -12.546875 C 10.300781 -13.066406 8.550781 -13.585938 7.21875 -14.109375 C 5.894531 -14.640625 4.757812 -15.445312 3.8125 -16.53125 C 2.863281 -17.613281 2.390625 -19.070312 2.390625 -20.90625 C 2.390625 -22.445312 2.789062 -23.832031 3.59375 -25.0625 C 4.40625 -26.300781 5.632812 -27.289062 7.28125 -28.03125 C 8.925781 -28.769531 10.972656 -29.140625 13.421875 -29.140625 C 15.117188 -29.140625 16.789062 -28.921875 18.4375 -28.484375 C 20.082031 -28.046875 21.492188 -27.414062 22.671875 -26.59375 L 21.3125 -23.296875 C 20.113281 -24.066406 18.828125 -24.648438 17.453125 -25.046875 C 16.078125 -25.441406 14.734375 -25.640625 13.421875 -25.640625 C 11.085938 -25.640625 9.335938 -25.210938 8.171875 -24.359375 C 7.003906 -23.515625 6.421875 -22.421875 6.421875 -21.078125 C 6.421875 -20.085938 6.75 -19.28125 7.40625 -18.65625 C 8.0625 -18.039062 8.875 -17.5625 9.84375 -17.21875 C 10.820312 -16.875 12.148438 -16.515625 13.828125 -16.140625 C 15.992188 -15.609375 17.734375 -15.082031 19.046875 -14.5625 C 20.367188 -14.039062 21.503906 -13.242188 22.453125 -12.171875 C 23.398438 -11.109375 23.875 -9.671875 23.875 -7.859375 C 23.875 -6.347656 23.460938 -4.96875 22.640625 -3.71875 C 21.816406 -2.476562 20.566406 -1.492188 18.890625 -0.765625 C 17.210938 -0.0351562 15.15625 0.328125 12.71875 0.328125 Z M 12.71875 0.328125 "/></g></g></g><g fill="#ffffff" fill-opacity="1"><g transform="translate(37.856975, 200.834847)"><g><path d="M 15.34375 -9.953125 L 15.34375 0 L 11.28125 0 L 11.28125 -10.046875 L -0.171875 -28.8125 L 4.234375 -28.8125 L 13.453125 -13.625 L 22.71875 -28.8125 L 26.796875 -28.8125 Z M 15.34375 -9.953125 "/></g></g></g><g fill="#ffffff" fill-opacity="1"><g transform="translate(72.184527, 200.834847)"><g><path d="M 29.09375 -28.8125 L 29.09375 0 L 25.71875 0 L 8.4375 -21.484375 L 8.4375 0 L 4.328125 0 L 4.328125 -28.8125 L 7.703125 -28.8125 L 24.984375 -7.328125 L 24.984375 -28.8125 Z M 29.09375 -28.8125 "/></g></g></g><g fill="#ffffff" fill-opacity="1"><g transform="translate(113.303235, 200.834847)"><g><path d="M 17.203125 0.328125 C 14.316406 0.328125 11.710938 -0.304688 9.390625 -1.578125 C 7.078125 -2.859375 5.257812 -4.613281 3.9375 -6.84375 C 2.625 -9.082031 1.96875 -11.601562 1.96875 -14.40625 C 1.96875 -17.207031 2.625 -19.722656 3.9375 -21.953125 C 5.257812 -24.191406 7.085938 -25.945312 9.421875 -27.21875 C 11.753906 -28.5 14.363281 -29.140625 17.25 -29.140625 C 19.5 -29.140625 21.554688 -28.757812 23.421875 -28 C 25.285156 -27.25 26.875 -26.132812 28.1875 -24.65625 L 25.515625 -22.0625 C 23.347656 -24.332031 20.644531 -25.46875 17.40625 -25.46875 C 15.269531 -25.46875 13.335938 -24.988281 11.609375 -24.03125 C 9.878906 -23.070312 8.523438 -21.75 7.546875 -20.0625 C 6.578125 -18.375 6.09375 -16.488281 6.09375 -14.40625 C 6.09375 -12.320312 6.578125 -10.4375 7.546875 -8.75 C 8.523438 -7.0625 9.878906 -5.734375 11.609375 -4.765625 C 13.335938 -3.804688 15.269531 -3.328125 17.40625 -3.328125 C 20.613281 -3.328125 23.316406 -4.484375 25.515625 -6.796875 L 28.1875 -4.203125 C 26.875 -2.710938 25.273438 -1.582031 23.390625 -0.8125 C 21.515625 -0.0507812 19.453125 0.328125 17.203125 0.328125 Z M 17.203125 0.328125 "/></g></g></g><g fill="#ffffff" fill-opacity="1"><g transform="translate(169.381767, 200.834847)"><g><path d="M 29.34375 -28.8125 L 16.703125 0 L 12.640625 0 L -0.046875 -28.8125 L 4.40625 -28.8125 L 14.78125 -5.140625 L 25.234375 -28.8125 Z M 29.34375 -28.8125 "/></g></g></g><g fill="#ffffff" fill-opacity="1"><g transform="translate(206.384621, 200.834847)"><g><path d="M 22.671875 -7.203125 L 7.359375 -7.203125 L 4.203125 0 L -0.046875 0 L 13 -28.8125 L 17.078125 -28.8125 L 30.171875 0 L 25.84375 0 Z M 21.234375 -10.5 L 15.015625 -24.609375 L 8.8125 -10.5 Z M 21.234375 -10.5 "/></g></g></g><g fill="#ffffff" fill-opacity="1"><g transform="translate(244.210647, 200.834847)"><g><path d="M 16.25 0.328125 C 12.414062 0.328125 9.425781 -0.765625 7.28125 -2.953125 C 5.144531 -5.148438 4.078125 -8.304688 4.078125 -12.421875 L 4.078125 -28.8125 L 8.1875 -28.8125 L 8.1875 -12.59375 C 8.1875 -6.414062 10.890625 -3.328125 16.296875 -3.328125 C 18.929688 -3.328125 20.945312 -4.085938 22.34375 -5.609375 C 23.75 -7.140625 24.453125 -9.46875 24.453125 -12.59375 L 24.453125 -28.8125 L 28.4375 -28.8125 L 28.4375 -12.421875 C 28.4375 -8.285156 27.363281 -5.125 25.21875 -2.9375 C 23.082031 -0.757812 20.09375 0.328125 16.25 0.328125 Z M 16.25 0.328125 "/></g></g></g><g fill="#ffffff" fill-opacity="1"><g transform="translate(284.465026, 200.834847)"><g><path d="M 4.328125 -28.8125 L 8.4375 -28.8125 L 8.4375 -3.578125 L 24.03125 -3.578125 L 24.03125 0 L 4.328125 0 Z M 4.328125 -28.8125 "/></g></g></g><g fill="#ffffff" fill-opacity="1"><g transform="translate(316.61119, 200.834847)"><g><path d="M 10.046875 -25.234375 L 0.171875 -25.234375 L 0.171875 -28.8125 L 24 -28.8125 L 24 -25.234375 L 14.109375 -25.234375 L 14.109375 0 L 10.046875 0 Z M 10.046875 -25.234375 "/></g></g></g></svg>